<?xml version="1.0" encoding="utf-8"?>
<!-- Generator: Adobe Illustrator 17.0.0, SVG Export Plug-In . SVG Version: 6.00 Build 0)  -->
<!DOCTYPE svg PUBLIC "-//W3C//DTD SVG 1.1//EN" "http://www.w3.org/Graphics/SVG/1.1/DTD/svg11.dtd">
<svg version="1.1" id="Layer_1" xmlns="http://www.w3.org/2000/svg" xmlns:xlink="http://www.w3.org/1999/xlink" x="0px" y="0px"
	 width="20px" height="20px" viewBox="0 0 20 20" enable-background="new 0 0 20 20" xml:space="preserve">
<g>
	<path fill="#FFFFFF" d="M20,9.3c0,0.5,0,0.9,0,1.4c0,0.3-0.1,0.6-0.1,1c-0.7,4-3.7,7.2-7.7,8.1c-0.5,0.1-1,0.2-1.5,0.2
		c-0.5,0-0.9,0-1.4,0c-0.2,0-0.4-0.1-0.6-0.1c-4.1-0.5-7.5-3.7-8.4-7.7c-0.1-0.5-0.2-1-0.3-1.5c0-0.5,0-0.9,0-1.4
		c0-0.2,0.1-0.4,0.1-0.6c0.5-4,3.5-7.4,7.4-8.3C8.1,0.2,8.7,0.1,9.3,0c0.5,0,0.9,0,1.4,0c0.2,0,0.4,0.1,0.6,0.1
		c4.1,0.5,7.5,3.7,8.4,7.7C19.8,8.3,19.9,8.8,20,9.3z M9.6,9.6c0-1.3,0-2.6,0-3.9C8.2,5.5,6.9,5.4,5.5,5.3C5,6.7,4.7,8.1,4.7,9.6
		C6.3,9.6,7.9,9.6,9.6,9.6z M14.5,5.3c-1.4,0.1-2.7,0.2-4.1,0.3c0,1.3,0,2.6,0,3.9c1.6,0,3.2,0,4.9,0C15.3,8.1,15,6.7,14.5,5.3z
		 M10.4,14.3c1.4,0.1,2.7,0.2,4.1,0.3c0.5-1.3,0.7-2.7,0.8-4.2c-1.6,0-3.3,0-4.9,0C10.4,11.7,10.4,13,10.4,14.3z M9.6,10.4
		c-1.6,0-3.3,0-4.9,0c0,1.5,0.3,2.9,0.8,4.2c1.4-0.1,2.7-0.2,4.1-0.3C9.6,13,9.6,11.7,9.6,10.4z M4.6,5.1C4.2,5,3.7,4.9,3.2,4.7
		c-0.2,0-0.2,0-0.3,0.1c-0.7,1-1.2,2.1-1.5,3.3c-0.1,0.5-0.2,1-0.2,1.5c0.9,0,1.8,0,2.7,0C3.9,8.8,4,8.1,4.1,7.3
		C4.2,6.6,4.4,5.9,4.6,5.1z M18.8,9.6c0-0.2,0-0.4-0.1-0.6c-0.2-1.5-0.7-2.9-1.6-4.2c0-0.1-0.1-0.1-0.2-0.1
		c-0.5,0.1-1.1,0.3-1.6,0.4c0.5,1.4,0.8,2.9,0.8,4.4C17,9.6,17.9,9.6,18.8,9.6z M16.1,10.4c0,1.5-0.3,3-0.8,4.4
		c0.5,0.1,1,0.3,1.5,0.4c0.2,0,0.2,0,0.3-0.1c0.6-0.9,1.1-1.8,1.3-2.8c0.1-0.6,0.2-1.2,0.4-1.9C17.9,10.4,17,10.4,16.1,10.4z
		 M4.7,14.8c-0.5-1.4-0.7-2.9-0.8-4.4c-0.9,0-1.8,0-2.7,0c0,0.3,0.1,0.7,0.1,1C1.5,12.8,2,14,2.8,15.1c0,0.1,0.1,0.1,0.2,0.1
		C3.6,15.1,4.1,15,4.7,14.8z M9.6,15.2c-1.3,0-2.5,0.1-3.8,0.3c0.3,0.7,0.7,1.4,1.3,2C7.6,18,8.2,18.5,9,18.7
		c0.2,0.1,0.4,0.1,0.6,0.1C9.6,17.6,9.6,16.4,9.6,15.2z M10.4,18.8c1.3,0.1,3.3-1.8,3.7-3.4c-1.2-0.1-2.5-0.2-3.7-0.3
		C10.4,16.4,10.4,17.6,10.4,18.8z M9.6,4.8c0-1.2,0-2.4,0-3.6C8.4,1.1,6.4,2.9,5.9,4.5C7.1,4.6,8.3,4.7,9.6,4.8z M10.4,4.8
		c1.2-0.1,2.5-0.2,3.7-0.3c-0.4-0.7-0.7-1.4-1.2-1.9C12.4,2,11.8,1.5,11,1.3c-0.2-0.1-0.4-0.1-0.6-0.1C10.4,2.4,10.4,3.6,10.4,4.8z
		 M3.5,16c0.9,1,1.9,1.7,3,2.1c-0.6-0.7-1.1-1.5-1.5-2.4c0,0-0.1-0.1-0.2-0.1C4.4,15.7,4,15.8,3.5,16z M13.5,18.1
		c1.2-0.5,2.2-1.2,3-2.1c-0.5-0.1-0.9-0.2-1.4-0.3c0,0-0.1,0-0.2,0.1C14.6,16.6,14.1,17.4,13.5,18.1z M16.4,4
		c-0.9-0.9-1.9-1.6-2.9-2.1c0.5,0.8,1,1.6,1.5,2.4C15.5,4.2,15.9,4.1,16.4,4z M4.9,4.3C5.5,3.5,6,2.7,6.5,1.9C5.4,2.4,4.4,3.1,3.6,4
		C4.1,4.1,4.5,4.2,4.9,4.3z"/>
</g>
</svg>
