<?xml version="1.0" encoding="utf-8"?>
<!-- Generator: Adobe Illustrator 17.0.0, SVG Export Plug-In . SVG Version: 6.00 Build 0)  -->
<!DOCTYPE svg PUBLIC "-//W3C//DTD SVG 1.1//EN" "http://www.w3.org/Graphics/SVG/1.1/DTD/svg11.dtd">
<svg version="1.1" id="Layer_1" xmlns="http://www.w3.org/2000/svg" xmlns:xlink="http://www.w3.org/1999/xlink" x="0px" y="0px"
	 width="50px" height="50px" viewBox="0 0 50 50" enable-background="new 0 0 50 50" xml:space="preserve">
<g>
	<path fill="#FFFFFF" d="M31.5,31.5c-0.6,0.6-1.3,1.2-2.1,1.7l6.5,6.5c1,1,2.5,1,3.5,0l0.3-0.3c1-1,1-2.5,0-3.5l-6.5-6.5
		C32.7,30.2,32.1,30.9,31.5,31.5z"/>
	<g>
		<path fill="#FFFFFF" d="M30.7,30.7c-4.8,4.8-12.5,4.8-17.3,0s-4.8-12.5,0-17.3c4.8-4.8,12.5-4.8,17.3,0S35.4,25.9,30.7,30.7z
			 M15.5,15.6c-3.6,3.6-3.6,9.4,0,12.9s9.4,3.6,12.9,0c3.6-3.6,3.6-9.4,0-12.9S19.1,12,15.5,15.6z"/>
	</g>
</g>
</svg>
